<?xml version="1.0" standalone="no"?>
<!DOCTYPE svg PUBLIC "-//W3C//DTD SVG 20010904//EN"
 "http://www.w3.org/TR/2001/REC-SVG-20010904/DTD/svg10.dtd">
<svg version="1.0" xmlns="http://www.w3.org/2000/svg"
 width="328.000000pt" height="328.000000pt" viewBox="0 0 328.000000 328.000000"
 preserveAspectRatio="xMidYMid meet">
<metadata>
Created by potrace 1.11, written by Peter Selinger 2001-2013
</metadata>
<g transform="translate(0.000000,328.000000) scale(0.100000,-0.100000)"
fill="#000000" stroke="none">
<path d="M275 2409 c-146 -9 -215 -33 -250 -85 -34 -53 0 -171 56 -194 15 -7
34 -19 43 -28 13 -15 128 -303 343 -857 123 -317 137 -336 251 -337 111 -1
134 27 242 297 112 280 145 355 158 355 5 0 50 -101 102 -224 84 -202 131
-286 158 -286 4 0 15 -17 24 -38 34 -73 77 -102 154 -102 86 0 109 19 170 147
l56 113 56 -58 c31 -32 79 -73 105 -91 65 -44 200 -106 262 -120 28 -6 61 -14
75 -17 54 -12 236 -10 308 3 102 19 227 66 295 111 114 75 171 146 222 276 30
79 33 81 76 95 24 8 49 19 55 25 87 88 -11 210 -186 231 -25 3 -55 8 -68 11
-32 7 -218 6 -267 -1 -97 -14 -186 -38 -217 -58 -60 -41 -76 -110 -35 -160 18
-23 35 -30 92 -39 40 -7 75 -18 82 -27 17 -22 16 -86 -2 -121 -67 -130 -285
10 -357 229 -28 85 -33 116 -32 241 1 129 14 176 67 246 94 124 281 130 394
13 161 -168 186 -184 262 -176 55 6 90 32 119 88 20 38 23 54 18 118 -4 63
-12 89 -50 166 -47 95 -108 164 -146 166 -11 1 -26 2 -32 3 -7 1 -38 -6 -68
-16 -30 -10 -57 -18 -60 -17 -3 1 -25 8 -50 15 -132 42 -306 55 -426 33 -44
-8 -60 -6 -103 11 -29 11 -63 20 -77 20 -14 0 -38 7 -53 15 -39 20 -79 26
-180 26 -93 1 -139 -5 -186 -23 -43 -17 -56 -34 -62 -76 -4 -33 -1 -43 27 -70
17 -18 40 -32 50 -32 22 0 40 -28 40 -61 0 -21 -83 -278 -100 -309 -6 -11 -23
16 -59 92 -80 172 -81 188 -17 246 35 31 41 45 36 87 -3 29 -38 63 -79 76 -20
6 -55 20 -78 31 -57 26 -144 38 -291 38 -156 1 -234 -8 -298 -31 -61 -23 -85
-47 -89 -90 -2 -28 5 -39 57 -88 58 -54 108 -134 108 -174 0 -47 -87 -237
-109 -237 -9 0 -59 110 -96 215 -31 87 -31 125 -2 178 13 23 23 48 22 55 -2 6
-3 20 -4 31 0 10 -11 29 -24 42 -67 70 -128 94 -253 98 -37 1 -70 3 -73 4 -3
2 -51 0 -106 -4z"/>
</g>
</svg>
